# xmcd
#
# Track frame offsets:
#	150
#	10150
#	25500
#	39475
#	54675
#	63475
#	79450
#	86275
#	97475
#	106425
#	119138
#	135900
#	144250
#	159900
#	169888
#	184125
#	195325
#	204350
#	220200
#	230475
#
# Disc length: 3250 seconds
#
# Revision: 1
# Processed by: cddbd v1.5.2PL0 Copyright (c) Steve Scherf et al.
# Submitted via: EasyCDDAExtractor 11.5.0.1
#
DISCID=120cb014
DTITLE=Boxcar Willie - King Of The Road
DYEAR=1988
DGENRE=Country
TTITLE0=King of The Road
TTITLE1=Wabash Cannonball
TTITLE2=You Are My Sunshine
TTITLE3=Boxcar Blues
TTITLE4=Don't Let The Stars Get In Your Eyes
TTITLE5=Your Cheatin' Heart
TTITLE6=I Saw The Light
TTITLE7=Wreck Of The Old '97
TTITLE8=Hank And The Hobo
TTITLE9=Peace In The Valley
TTITLE10=Mule Train
TTITLE11=Hey Good Lookin'
TTITLE12=Kaw-Liga
TTITLE13=Move It On Over
TTITLE14=London Leaves
TTITLE15=Rolling In My Sweet Baby's Arms
TTITLE16=Divorce Me C.O.D.
TTITLE17=Red River Valley
TTITLE18=Heaven
TTITLE19=San Antonio Rose
EXTD=
EXTT0=
EXTT1=
EXTT2=
EXTT3=
EXTT4=
EXTT5=
EXTT6=
EXTT7=
EXTT8=
EXTT9=
EXTT10=
EXTT11=
EXTT12=
EXTT13=
EXTT14=
EXTT15=
EXTT16=
EXTT17=
EXTT18=
EXTT19=
PLAYORDER=
